# xmcd CD database file
#
# Track frame offsets:
#	150
#	15305
#	28937
#	43924
#	59601
#	76690
#	96680
#	111269
#	129086
#	146721
#	161428
#	178252
#	196027
#	213411
#	226908
#	244353
#	260540
#	275704
#
# Disc length: 3873 seconds
#
# Revision: 5
# Processed by: cddbd v1.5.2PL0 Copyright (c) Steve Scherf et al.
# Submitted via: CDex 1.70beta2
#
DISCID=060f1f12
DTITLE=Various Artist - 続・青春歌年鑑 ’75
DYEAR=1975
DGENRE=歌謡曲
TTITLE0=ロマンス - 岩崎  宏美
TTITLE1=花のように鳥のように - 郷  ひろみ
TTITLE2=湖の決心 - 山口  百恵
TTITLE3=この愛のときめき - 西城  秀樹
TTITLE4=あなたにあげる - 西川  峰子
TTITLE5=人恋しくて - 南  沙織
TTITLE6=22才の別れ - 風
TTITLE7=となりの町のお嬢さん - 吉田  拓郎
TTITLE8=東  京 - マイペース
TTITLE9=中の島ブルース - 内山田  洋 と クールファイブ
TTITLE10=おんなの運命 - 殿さまキングス
TTITLE11=北へ帰ろう - 徳久  広司
TTITLE12=おんなの夢 - 八代  亜紀
TTITLE13=旅  愁 - 西崎  みどり
TTITLE14=千曲川 - 五木  ひろし
TTITLE15=哀しみの終わるとき - 野口  五郎
TTITLE16=ささやかな欲望 - 山口  百恵
TTITLE17=はじめての出来事 - 桜田  淳子
EXTD=YEAR: 1975
EXTT0=
EXTT1=
EXTT2=
EXTT3=
EXTT4=
EXTT5=
EXTT6=
EXTT7=
EXTT8=
EXTT9=
EXTT10=
EXTT11=
EXTT12=
EXTT13=
EXTT14=
EXTT15=
EXTT16=
EXTT17=
PLAYORDER=
